<svg width="25" height="25" viewBox="0 0 16 16" fill="none" xmlns="http://www.w3.org/2000/svg">
<path d="M3 15H9C9.26514 14.9997 9.51934 14.8943 9.70681 14.7068C9.89429 14.5193 9.99974 14.2651 10 14V12.5H9V14H3V2H9V3.5H10V2C9.99974 1.73486 9.89429 1.48066 9.70681 1.29319C9.51934 1.10571 9.26514 1.00026 9 1H3C2.73486 1.00026 2.48066 1.10571 2.29319 1.29319C2.10571 1.48066 2.00026 1.73486 2 2V14C2.00026 14.2651 2.10571 14.5193 2.29319 14.7068C2.48066 14.8943 2.73486 14.9997 3 15Z" fill="white"/>
<path d="M10.293 10.293L12.086 8.5H5V7.5H12.086L10.293 5.707L11 5L14 8L11 11L10.293 10.293Z" fill="white"/>
</svg>