<svg width="20" height="15" viewBox="0 0 20 15" fill="none" xmlns="http://www.w3.org/2000/svg">
<path d="M19.5001 13H0.500089C0.223839 13 8.88318e-05 13.2237 8.88318e-05 13.5V14.5C8.88318e-05 14.7762 0.223839 15 0.500089 15H19.5001C19.7763 15 20.0001 14.7762 20.0001 14.5V13.5C20.0001 13.2237 19.7763 13 19.5001 13ZM2.51728 9.66468C2.71353 9.87843 2.98915 9.99968 3.27759 9.99937L7.35696 9.99375C7.6789 9.99331 7.99621 9.91709 8.28321 9.77125L17.3757 5.15718C18.2113 4.73312 18.9604 4.12781 19.4701 3.335C20.0423 2.445 20.1045 1.80093 19.8785 1.34593C19.6532 0.890621 19.1054 0.556246 18.0582 0.488121C17.1254 0.427496 16.1976 0.673121 15.362 1.09687L12.2835 2.65906L5.44915 0.0946839C5.36698 0.0393269 5.27151 0.00692416 5.17262 0.000825853C5.07373 -0.00527245 4.975 0.0151551 4.88665 0.0599963L2.83196 1.10281C2.49853 1.27187 2.4179 1.71687 2.6704 1.99437L7.55228 5.06L4.32696 6.69687L2.06603 5.55718C1.98813 5.51791 1.90209 5.49751 1.81486 5.49761C1.72762 5.49772 1.64164 5.51834 1.56384 5.55781L0.309776 6.19437C-0.0164737 6.36 -0.102411 6.79187 0.135714 7.07187L2.51728 9.66468Z" fill="white"/>
</svg>

